<svg xmlns="http://www.w3.org/2000/svg"  viewBox="0 0 40 40" width="16px" height="16px"><polygon fill="#f78f8f" points="2.5,6.5 2.5,20.5 14.5,35.5 25.5,35.5"/><path fill="#c74343" d="M25.5,36h-11c-0.152,0-0.296-0.069-0.391-0.188l-12-15C2.039,20.724,2,20.613,2,20.5v-14 c0-0.213,0.135-0.402,0.336-0.472C2.537,5.956,2.76,6.022,2.892,6.189l23,29c0.119,0.15,0.142,0.355,0.059,0.528 S25.691,36,25.5,36z M14.74,35h9.725L3,7.936v12.389L14.74,35z"/><polygon fill="#f78f8f" points="22.5,25.5 37.5,6.5 37.5,20.5 33.5,25.5"/><path fill="#c74343" d="M33.5,26h-11c-0.191,0-0.366-0.109-0.45-0.282c-0.083-0.172-0.061-0.377,0.058-0.527l15-19 c0.132-0.168,0.355-0.232,0.557-0.163C37.865,6.098,38,6.287,38,6.5v14c0,0.113-0.039,0.224-0.109,0.313l-4,5 C33.796,25.931,33.652,26,33.5,26z M23.532,25h9.728L37,20.324V7.94L23.532,25z"/></svg>