<svg xmlns="http://www.w3.org/2000/svg"  viewBox="0 0 40 40" width="480px" height="480px"><path fill="#b2a9d1" d="M2.511,2.491H37.38v34.869H2.511V2.491z"/><path fill="#fff" d="M11.201,18.01c0-0.725-0.583-1.309-1.297-1.309H9.262v2.607h0.643 C10.618,19.307,11.201,18.723,11.201,18.01 M14.127,23.207h-2.361l-1.874-2.601h-0.63v2.596H7.181v-7.798h2.981 c1.718,0,3.121,1.169,3.121,2.606c0,0.877-0.538,1.66-1.356,2.139L14.127,23.207"/><path fill="#fff" d="M16.473,18.478c-0.549,0-1.017,0.747-1.017,1.672c0,0.925,0.468,1.672,1.017,1.672 c0.562,0,1.029-0.748,1.029-1.672S17.035,18.478,16.473,18.478 M19.676,20.149c0,1.766-1.437,3.181-3.203,3.181 c-1.766,0-3.192-1.414-3.192-3.181c0-1.765,1.426-3.18,3.192-3.18C18.24,16.969,19.676,18.384,19.676,20.149"/><path fill="#fff" d="M24.559,17.098l-2.397,2.397V17.09h-2.08v6.111h2.08v-2.479l2.502,2.479h2.618l-3.18-3.18 l2.634-2.633v3.626c0,1.204,0.724,2.315,2.548,2.315c0.866,0,1.66-0.491,2.046-0.935l0.936,0.807h0.444v-6.103h-2.08v3.18v0.772 c-0.234,0.409-0.561,0.666-1.065,0.666c-0.512,0-0.747-0.303-0.747-1.274v-0.256v-3.087L24.559,17.098L24.559,17.098z"/><rect width="34" height="34" x="3" y="2.979" fill="none" stroke="#8b75a1" stroke-miterlimit="10"/></svg>